<?xml version="1.0" encoding="UTF-8"?>
<!DOCTYPE svg  PUBLIC '-//W3C//DTD SVG 1.1//EN'  'http://www.w3.org/Graphics/SVG/1.1/DTD/svg11.dtd'>
<svg width="73.684mm" height="13.859mm" clip-rule="evenodd" fill-rule="evenodd" image-rendering="optimizeQuality" shape-rendering="geometricPrecision" text-rendering="geometricPrecision" version="1.1" viewBox="0 0 7367.4 1385.7" xml:space="preserve" xmlns="http://www.w3.org/2000/svg">
 <defs>
  <style type="text/css">
   <![CDATA[
    .fil1 {fill:#FEFEFE}
    .fil0 {fill:#009A17}
   ]]>
  </style>
 </defs>
 
  
  
   
    
     <path class="fil0" d="m26.43 906.62 13.23-64.39h331.07l-13.52 64.39h-330.78zm-21.87 106.42h413.47v-0.05h119.07l74.45-391.74c0.89-6.32 4.4-20.76 12.31-20.76 4.4 0 5.28 10.83 6.15 22.56l32.52 305.15c4.4 46.04 14.05 84.85 101.04 84.85 87.01 0 112.47-38.8 136.21-84.85l121.44-235.62-115.95 564.27c-18.93 92.11-108.06 147.22-198.61 123.23l-573.01-151.92c-90.77-24.07-149-118.2-130.06-210.35l0.98-4.77zm43.84-213.43 8.76-42.52h331.44l-8.94 42.52h-331.26zm17.51-85.14 8.74-42.54h331.82l-8.93 42.54h-331.63zm17.5-85.15 8.75-42.54h332.19l-8.93 42.54h-332.01zm17.51-85.16 8.73-42.52h332.58l-8.93 42.52h-332.38zm17.49-85.14 8.74-42.54h349.31c-9.93 11.08-18.33 25-24.22 42.54h-333.83zm17.51-85.15 50.34-245.03c18.93-92.12 108.07-147.23 198.61-123.22l573.01 151.92c90.76 24.06 149.01 118.18 130.07 210.34l-2.81 13.64c-37.48 10.09-76.03 33.82-104.53 89.87l-155.52 306.94c-4.4 9.03-14.94 28.9-24.61 28.9s-11.42-18.07-12.31-28.9l-32.51-306.94c-10.44-98.35-89.84-97.14-142.58-97.41l-477.17-0.1z"/>
    
   
   <path class="fil1" d="m2211.5 526.21c6.9-12.09 12.93-20.72 17.25-20.72 3.45 0 6.05 3.45 6.05 10.35 0 2.6 0 5.19-0.86 8.63l-94.07 418.5h155.33l110.44-517.72c1.72-7.77 2.58-15.53 2.58-23.3 0-37.96-30.21-69.89-113.02-69.89-59.54 0-113.9 20.7-152.73 88.87l-197.6 348.59c-6.05 11.23-13.81 25.04-20.72 25.04-6.89 0-10.35-13.81-12.07-25.04l-51.78-348.59c-10.35-69.03-54.35-88.87-114.75-88.87-45.73 0-118.21 12.07-135.46 93.19l-110.46 517.72h155.33l84.55-418.5c0.88-4.31 4.32-18.98 12.95-18.98 5.18 0 6.91 10.35 8.63 20.72l50.05 346.87c6.91 46.59 16.39 76.8 85.42 76.8 68.17 0 90.61-30.21 117.35-76.8l197.6-346.87zm4737-40.56-80.86 381.05c-5.74 26.38-14.63 45.44-26.67 57.2-12.04 11.75-31.83 17.63-59.35 17.63h-159.99c-42.43 0-75.55-9.31-99.35-27.96-23.79-18.63-35.69-45.72-35.69-81.28 0-10.33 1.43-23.23 4.31-38.7l65.36-307.94h72.25l-62.78 295.03c-2.87 15.49-4.31 27.82-4.31 36.99 0 43.58 24.67 65.37 73.98 65.37h129.87c9.19 0 16.35-2.15 21.51-6.45 5.17-4.31 8.89-11.91 11.19-22.8l78.28-368.15h72.25zm331.14 455.87h-310.5c-32.12 0-48.18-12.04-48.18-36.12 0-16.63 4.17-30.82 12.48-42.57 8.31-11.76 21.94-25.95 40.86-42.57l293.3-258.9c5.74-4.59 8.61-8.6 8.61-12.04 0-3.45-2.3-5.17-6.89-5.17h-261.47l12.04-58.49h308.79c13.2 0 22.94 3.3 29.25 9.9 6.31 6.59 9.47 15.05 9.47 25.38 0 14.9-3.87 27.96-11.61 39.13-7.76 11.18-19.94 24.23-36.56 39.13l-300.2 267.5c-6.31 6.31-9.46 10.61-9.46 12.91 0 2.29 2.3 3.44 6.88 3.44h276.11l-12.91 58.48zm-4441.7 1.45 20.72-96.65h-222.62c-57.82 0-76.8-18.98-76.8-54.36 0-9.49 0.86-20.7 3.44-32.79h258.01c56.08 0 80.24-25.88 91.46-77.66 5.17-23.3 8.63-44.86 8.63-62.98 0-107.85-81.98-138.06-210.53-138.06-177.76 0-232.13 24.16-273.54 206.23-9.49 41.4-15.53 85.42-15.53 116.48 0 94.91 47.45 139.78 157.91 139.78h258.85zm-255.4-276.98c14.67-67.31 45.73-88.88 115.62-88.88 38.82 0 84.56 12.08 84.56 49.19 0 3.44-0.86 7.76-1.72 12.07-2.6 11.23-6.9 27.62-31.07 27.62h-167.4zm615.22-180.34c-155.31 0-206.23 73.35-235.57 211.41-6.03 27.6-8.63 54.36-8.63 79.38 0 98.37 38.83 166.54 156.18 166.54h128.57c-18.12 44.87-55.22 57.8-99.24 57.8h-206.22l-20.71 94.93h229.53c146.69 0 208.81-50.91 239.02-191.55l70.75-332.2c1.72-7.77 2.59-14.67 2.59-21.58 0-37.1-23.3-64.72-70.76-64.72h-185.51zm61.27 358.1h-99.24c-53.5 0-68.17-29.35-68.17-68.17 0-18.98 3.46-39.69 7.77-61.27 15.53-70.75 36.24-129.43 117.34-129.43h63c20.7 0 29.33 5.19 29.33 20.72 0 4.32-0.86 8.63-1.72 13.81l-48.31 224.35zm314.94-358.1-20.72 96.65h231.25c31.07 0 48.32 13.81 48.32 39.68 0 5.19-0.87 9.49-1.73 15.54l-4.3 19.85h-207.95c-81.98 0-129.44 34.51-144.11 121.67-2.58 17.25-4.32 37.08-4.32 51.76 0 68.16 37.1 112.17 104.41 112.17h239.02c64.7 0 93.19-30.21 105.27-86.28l47.45-226.09c2.58-13.81 3.44-24.16 3.44-35.36 0-62.13-37.1-109.59-113.89-109.59h-282.15zm232.97 264.9-14.67 69.03c-5.18 21.58-15.53 30.21-37.1 30.21h-114.76c-21.56 0-31.93-12.09-31.93-31.93 0-6.9 1.72-19.85 4.32-29.34 8.63-31.07 24.16-37.97 50.04-37.97h144.1zm509.09 192.42c-19.84 63.85-73.33 89.75-134.6 89.75h-190.69l-12.09 58.66h190.7c151.87 0 201.04-58.66 229.52-192.42l71.62-333.92c1.72-7.76 2.6-14.67 2.6-20.71 0-44.01-38.84-58.68-101.84-58.68h-106.11c-159.64 0-207.95 77.67-238.16 220.04-6.91 33.65-11.23 64.7-11.23 92.33 0 91.46 44.01 144.96 160.5 144.96h139.78zm13.81-58.68h-135.47c-77.66 0-102.68-29.34-102.68-85.42 0-23.3 4.32-51.78 11.21-84.57 22.44-107.85 54.37-169.98 163.96-169.98h102.68c18.99 0 26.76 6.9 26.76 20.71 0 3.45 0 6.91-0.88 10.35l-65.57 308.91zm158.78 58.68h72.47l58.68-274.4c18.12-83.7 56.08-124.24 135.46-124.24h37.11l12.08-58.68h-50.05c-121.66 0-179.46 51.77-203.63 164.82l-62.12 292.51zm582.43-462.49c-163.95 0-238.16 50.9-275.26 223.48-6.89 31.07-9.49 58.67-9.49 83.71 0 113.02 68.17 160.49 202.78 160.49 163.95 0 239.02-53.49 276.11-226.94 6.9-31.07 9.5-58.68 9.5-82.84 0-112.16-69.03-157.9-203.64-157.9zm-199.32 232.11c27.62-129.43 79.39-173.45 195.87-173.45 90.61 0 131.16 26.76 131.16 100.1 0 20.72-3.46 44.87-9.49 73.35-27.62 129.43-79.4 176.88-195.88 176.88-90.61 0-131.15-29.34-131.15-103.55 0-20.7 3.46-44.86 9.49-73.34zm919.82-226.94h-72.49l-78.52 369.31c-5.17 23.3-15.53 29.34-32.79 29.34h-130.29c-54.36 0-74.21-25.02-74.21-65.57 0-11.23 1.74-23.3 4.32-37.1l62.98-295.97h-72.47l-65.59 308.92c-2.58 13.8-4.3 26.75-4.3 38.82 0 71.62 50.9 109.58 135.46 109.58h160.5c58.68 0 75.93-26.76 86.28-75.07l81.12-382.26zm73.34 457.32h139.78c155.33 0 206.23-79.38 236.43-221.76 6.91-31.93 10.37-61.26 10.37-88.01 0-91.47-44.01-147.56-157.92-147.56h-128.57c-53.49 0-79.38 19.85-90.59 71.63l-112.17 532.38h71.61l31.07-146.69zm79.39-371.89c4.31-20.72 15.54-26.76 32.79-26.76h100.1c75.93 0 98.37 32.79 98.37 86.28 0 23.3-3.46 51.78-10.36 81.98-20.7 99.24-50.9 171.71-160.5 171.71h-126.83l66.44-313.2zm435.74 371.89 19.86-93.19h-78.52l-19.86 93.19h78.52z"/>
  
 
</svg>
